<mxfile host="app.diagrams.net" modified="2022-09-04T03:57:52.610Z" agent="5.0 (X11)" etag="mMfUH-lH76QXR0xGCalp" version="20.2.8" type="github">
  <diagram name="Page-1" id="197159a0-c6a4-9194-75a8-e4174976684c">
    <mxGraphModel dx="1214" dy="676" grid="1" gridSize="10" guides="1" tooltips="1" connect="1" arrows="1" fold="1" page="1" pageScale="1.5" pageWidth="1169" pageHeight="826" background="none" math="0" shadow="0">
      <root>
        <mxCell id="0" style=";html=1;" />
        <mxCell id="1" style=";html=1;" parent="0" />
        <mxCell id="1257a543d1cacc4b-9" value="Internet" style="shadow=0;dashed=0;html=1;strokeColor=none;fillColor=#4495D1;labelPosition=center;verticalLabelPosition=middle;verticalAlign=middle;shape=mxgraph.veeam.2d.cloud;fontSize=14;align=center;" parent="1" vertex="1">
          <mxGeometry x="571" y="880" width="66" height="46" as="geometry" />
        </mxCell>
        <mxCell id="1257a543d1cacc4b-40" value="" style="shadow=0;dashed=0;html=1;strokeColor=none;fillColor=#4495D1;labelPosition=right;verticalLabelPosition=middle;verticalAlign=middle;shape=mxgraph.veeam.2d.data_mover;fontSize=14;align=left;sketch=0;comic=0;" parent="1" vertex="1">
          <mxGeometry x="370" y="747" width="70" height="70" as="geometry" />
        </mxCell>
        <mxCell id="1257a543d1cacc4b-41" value="" style="shadow=0;dashed=0;html=1;strokeColor=none;fillColor=#4495D1;labelPosition=left;verticalLabelPosition=middle;verticalAlign=middle;shape=mxgraph.veeam.2d.data_mover;fontSize=14;align=right;" parent="1" vertex="1">
          <mxGeometry x="770" y="747" width="70" height="70" as="geometry" />
        </mxCell>
        <mxCell id="1257a543d1cacc4b-50" value="" style="line;strokeWidth=2;html=1;fillColor=none;gradientColor=none;fontSize=14;strokeColor=#808080;dashed=1;comic=1;" parent="1" vertex="1">
          <mxGeometry x="280" y="510" width="640" height="10" as="geometry" />
        </mxCell>
        <mxCell id="1257a543d1cacc4b-52" value="Title" style="text;strokeColor=none;fillColor=none;html=1;fontSize=24;fontStyle=1;verticalAlign=middle;align=center;" parent="1" vertex="1">
          <mxGeometry x="160" y="60" width="1420" height="40" as="geometry" />
        </mxCell>
        <mxCell id="6Y4A40ZoxVQJK0zI3ODf-5" value="" style="shadow=0;dashed=0;html=1;labelPosition=center;verticalLabelPosition=bottom;verticalAlign=top;align=center;outlineConnect=0;shape=mxgraph.veeam.3d.network_card;" vertex="1" parent="1">
          <mxGeometry x="585" y="761" width="38" height="40" as="geometry" />
        </mxCell>
        <mxCell id="6Y4A40ZoxVQJK0zI3ODf-13" value="Ring Buffer" style="text;html=1;align=center;verticalAlign=middle;resizable=0;points=[];autosize=1;strokeColor=none;fillColor=none;" vertex="1" parent="1">
          <mxGeometry x="290" y="766" width="80" height="30" as="geometry" />
        </mxCell>
        <mxCell id="6Y4A40ZoxVQJK0zI3ODf-14" value="Ring Buffer" style="text;html=1;align=center;verticalAlign=middle;resizable=0;points=[];autosize=1;strokeColor=none;fillColor=none;" vertex="1" parent="1">
          <mxGeometry x="840" y="766" width="80" height="30" as="geometry" />
        </mxCell>
        <mxCell id="6Y4A40ZoxVQJK0zI3ODf-15" value="数据链路层" style="rounded=0;whiteSpace=wrap;html=1;shadow=0;comic=1;sketch=0;fillColor=#d5e8d4;strokeColor=#82b366;" vertex="1" parent="1">
          <mxGeometry x="356.25" y="680" width="97.5" height="30" as="geometry" />
        </mxCell>
        <mxCell id="6Y4A40ZoxVQJK0zI3ODf-16" value="网络层" style="rounded=0;whiteSpace=wrap;html=1;shadow=0;comic=1;sketch=0;fillColor=#ffe6cc;strokeColor=#d79b00;" vertex="1" parent="1">
          <mxGeometry x="356.25" y="610" width="97.5" height="30" as="geometry" />
        </mxCell>
        <mxCell id="6Y4A40ZoxVQJK0zI3ODf-17" value="传输层" style="rounded=0;whiteSpace=wrap;html=1;shadow=0;comic=1;sketch=0;fillColor=#fff2cc;strokeColor=#d6b656;" vertex="1" parent="1">
          <mxGeometry x="356.25" y="540" width="97.5" height="30" as="geometry" />
        </mxCell>
        <mxCell id="6Y4A40ZoxVQJK0zI3ODf-18" value="应用层" style="rounded=0;whiteSpace=wrap;html=1;shadow=0;comic=1;sketch=0;fillColor=#f8cecc;strokeColor=#b85450;" vertex="1" parent="1">
          <mxGeometry x="356.25" y="470" width="97.5" height="30" as="geometry" />
        </mxCell>
        <mxCell id="6Y4A40ZoxVQJK0zI3ODf-19" value="数据链路层" style="rounded=0;whiteSpace=wrap;html=1;shadow=0;comic=1;sketch=0;fillColor=#d5e8d4;strokeColor=#82b366;" vertex="1" parent="1">
          <mxGeometry x="756.25" y="680" width="97.5" height="30" as="geometry" />
        </mxCell>
        <mxCell id="6Y4A40ZoxVQJK0zI3ODf-20" value="网络层" style="rounded=0;whiteSpace=wrap;html=1;shadow=0;comic=1;sketch=0;fillColor=#ffe6cc;strokeColor=#d79b00;" vertex="1" parent="1">
          <mxGeometry x="756.25" y="610" width="97.5" height="30" as="geometry" />
        </mxCell>
        <mxCell id="6Y4A40ZoxVQJK0zI3ODf-21" value="传输层" style="rounded=0;whiteSpace=wrap;html=1;shadow=0;comic=1;sketch=0;fillColor=#fff2cc;strokeColor=#d6b656;" vertex="1" parent="1">
          <mxGeometry x="756.25" y="540" width="97.5" height="30" as="geometry" />
        </mxCell>
        <mxCell id="6Y4A40ZoxVQJK0zI3ODf-22" value="应用层" style="rounded=0;whiteSpace=wrap;html=1;shadow=0;comic=1;sketch=0;fillColor=#f8cecc;strokeColor=#b85450;" vertex="1" parent="1">
          <mxGeometry x="756.25" y="470" width="97.5" height="30" as="geometry" />
        </mxCell>
        <mxCell id="6Y4A40ZoxVQJK0zI3ODf-23" value="DMA" style="shape=flexArrow;endArrow=classic;html=1;rounded=0;shadow=0;comic=1;sketch=0;startSize=4;endSize=4;sourcePerimeterSpacing=0;targetPerimeterSpacing=0;entryX=1.064;entryY=0.557;entryDx=0;entryDy=0;entryPerimeter=0;" edge="1" parent="1">
          <mxGeometry width="50" height="50" relative="1" as="geometry">
            <mxPoint x="580" y="784" as="sourcePoint" />
            <mxPoint x="444.48" y="783.99" as="targetPoint" />
          </mxGeometry>
        </mxCell>
        <mxCell id="6Y4A40ZoxVQJK0zI3ODf-24" value="DMA" style="shape=flexArrow;endArrow=classic;html=1;rounded=0;shadow=0;comic=1;sketch=0;startSize=4;endSize=4;sourcePerimeterSpacing=0;targetPerimeterSpacing=0;" edge="1" parent="1">
          <mxGeometry width="50" height="50" relative="1" as="geometry">
            <mxPoint x="765" y="784" as="sourcePoint" />
            <mxPoint x="626" y="784" as="targetPoint" />
          </mxGeometry>
        </mxCell>
        <mxCell id="6Y4A40ZoxVQJK0zI3ODf-25" value="01010101" style="shape=flexArrow;endArrow=classic;html=1;rounded=0;shadow=0;comic=1;sketch=0;startSize=4;endSize=4;sourcePerimeterSpacing=0;targetPerimeterSpacing=0;exitX=0.508;exitY=0;exitDx=0;exitDy=0;exitPerimeter=0;startArrow=block;" edge="1" parent="1" source="1257a543d1cacc4b-9" target="6Y4A40ZoxVQJK0zI3ODf-5">
          <mxGeometry width="50" height="50" relative="1" as="geometry">
            <mxPoint x="580" y="870" as="sourcePoint" />
            <mxPoint x="630" y="820" as="targetPoint" />
          </mxGeometry>
        </mxCell>
        <mxCell id="6Y4A40ZoxVQJK0zI3ODf-28" value="" style="shape=flexArrow;endArrow=classic;html=1;rounded=0;shadow=0;comic=1;sketch=0;startSize=4;endSize=4;sourcePerimeterSpacing=0;targetPerimeterSpacing=0;entryX=0.5;entryY=1;entryDx=0;entryDy=0;exitX=0.5;exitY=0;exitDx=0;exitDy=0;" edge="1" parent="1" source="6Y4A40ZoxVQJK0zI3ODf-15" target="6Y4A40ZoxVQJK0zI3ODf-16">
          <mxGeometry width="50" height="50" relative="1" as="geometry">
            <mxPoint x="540" y="650" as="sourcePoint" />
            <mxPoint x="510" y="640" as="targetPoint" />
          </mxGeometry>
        </mxCell>
        <mxCell id="6Y4A40ZoxVQJK0zI3ODf-29" value="" style="shape=flexArrow;endArrow=classic;html=1;rounded=0;shadow=0;comic=1;sketch=0;startSize=4;endSize=4;sourcePerimeterSpacing=0;targetPerimeterSpacing=0;entryX=0.5;entryY=1;entryDx=0;entryDy=0;exitX=0.5;exitY=0;exitDx=0;exitDy=0;" edge="1" parent="1" source="6Y4A40ZoxVQJK0zI3ODf-16" target="6Y4A40ZoxVQJK0zI3ODf-17">
          <mxGeometry width="50" height="50" relative="1" as="geometry">
            <mxPoint x="549" y="690" as="sourcePoint" />
            <mxPoint x="549" y="650" as="targetPoint" />
          </mxGeometry>
        </mxCell>
        <mxCell id="6Y4A40ZoxVQJK0zI3ODf-30" value="" style="shape=flexArrow;endArrow=classic;html=1;rounded=0;shadow=0;comic=1;sketch=0;startSize=4;endSize=4;sourcePerimeterSpacing=0;targetPerimeterSpacing=0;entryX=0.5;entryY=1;entryDx=0;entryDy=0;exitX=0.5;exitY=0;exitDx=0;exitDy=0;" edge="1" parent="1" source="6Y4A40ZoxVQJK0zI3ODf-17" target="6Y4A40ZoxVQJK0zI3ODf-18">
          <mxGeometry width="50" height="50" relative="1" as="geometry">
            <mxPoint x="521" y="620" as="sourcePoint" />
            <mxPoint x="521" y="580" as="targetPoint" />
          </mxGeometry>
        </mxCell>
        <mxCell id="6Y4A40ZoxVQJK0zI3ODf-31" value="" style="shape=flexArrow;endArrow=classic;html=1;rounded=0;shadow=0;comic=1;sketch=0;startSize=4;endSize=4;sourcePerimeterSpacing=0;targetPerimeterSpacing=0;entryX=0.5;entryY=1;entryDx=0;entryDy=0;" edge="1" parent="1">
          <mxGeometry width="50" height="50" relative="1" as="geometry">
            <mxPoint x="405" y="743" as="sourcePoint" />
            <mxPoint x="405" y="713" as="targetPoint" />
          </mxGeometry>
        </mxCell>
        <mxCell id="6Y4A40ZoxVQJK0zI3ODf-32" value="" style="shape=flexArrow;endArrow=classic;html=1;rounded=0;shadow=0;comic=1;sketch=0;startSize=4;endSize=4;sourcePerimeterSpacing=0;targetPerimeterSpacing=0;entryX=0.5;entryY=0;entryDx=0;entryDy=0;exitX=0.5;exitY=1;exitDx=0;exitDy=0;" edge="1" parent="1" source="6Y4A40ZoxVQJK0zI3ODf-22" target="6Y4A40ZoxVQJK0zI3ODf-21">
          <mxGeometry width="50" height="50" relative="1" as="geometry">
            <mxPoint x="547" y="620" as="sourcePoint" />
            <mxPoint x="547" y="580" as="targetPoint" />
          </mxGeometry>
        </mxCell>
        <mxCell id="6Y4A40ZoxVQJK0zI3ODf-33" value="" style="shape=flexArrow;endArrow=classic;html=1;rounded=0;shadow=0;comic=1;sketch=0;startSize=4;endSize=4;sourcePerimeterSpacing=0;targetPerimeterSpacing=0;entryX=0.5;entryY=0;entryDx=0;entryDy=0;exitX=0.5;exitY=1;exitDx=0;exitDy=0;" edge="1" parent="1" source="6Y4A40ZoxVQJK0zI3ODf-21" target="6Y4A40ZoxVQJK0zI3ODf-20">
          <mxGeometry width="50" height="50" relative="1" as="geometry">
            <mxPoint x="712" y="522" as="sourcePoint" />
            <mxPoint x="712" y="562" as="targetPoint" />
          </mxGeometry>
        </mxCell>
        <mxCell id="6Y4A40ZoxVQJK0zI3ODf-34" value="" style="shape=flexArrow;endArrow=classic;html=1;rounded=0;shadow=0;comic=1;sketch=0;startSize=4;endSize=4;sourcePerimeterSpacing=0;targetPerimeterSpacing=0;entryX=0.5;entryY=0;entryDx=0;entryDy=0;exitX=0.5;exitY=1;exitDx=0;exitDy=0;" edge="1" parent="1" source="6Y4A40ZoxVQJK0zI3ODf-20" target="6Y4A40ZoxVQJK0zI3ODf-19">
          <mxGeometry width="50" height="50" relative="1" as="geometry">
            <mxPoint x="688" y="580" as="sourcePoint" />
            <mxPoint x="688" y="620" as="targetPoint" />
          </mxGeometry>
        </mxCell>
        <mxCell id="6Y4A40ZoxVQJK0zI3ODf-35" value="" style="shape=flexArrow;endArrow=classic;html=1;rounded=0;shadow=0;comic=1;sketch=0;startSize=4;endSize=4;sourcePerimeterSpacing=0;targetPerimeterSpacing=0;exitX=0.5;exitY=1;exitDx=0;exitDy=0;" edge="1" parent="1">
          <mxGeometry width="50" height="50" relative="1" as="geometry">
            <mxPoint x="804.5" y="713" as="sourcePoint" />
            <mxPoint x="805" y="743" as="targetPoint" />
          </mxGeometry>
        </mxCell>
      </root>
    </mxGraphModel>
  </diagram>
</mxfile>
